<svg width="24" height="24" viewBox="0 0 24 24" fill="none" xmlns="http://www.w3.org/2000/svg">
<path fill-rule="evenodd" clip-rule="evenodd" d="M4.98464 2.09688C4.15083 2.6799 3.39685 3.36923 2.74232 4.1452C5.41702 3.89688 8.81514 4.30235 12.7603 6.27496C16.9732 8.38136 20.3657 8.45258 22.7266 7.99717C22.5124 7.34856 22.2427 6.72518 21.9232 6.13258C19.2206 6.41763 15.7557 6.04032 11.7178 4.02139C9.15364 2.73932 6.89337 2.2112 4.98464 2.09688ZM20.3445 3.88541C18.2101 1.50074 15.1085 0 11.6562 0C10.6424 0 9.65876 0.129447 8.72101 0.372697C9.99108 0.719241 11.3403 1.22623 12.7603 1.93626C15.7167 3.41442 18.2691 3.89037 20.3445 3.88541ZM23.2314 10.2739C20.3791 10.8371 16.4404 10.7214 11.7178 8.36009C7.30262 6.15251 3.78853 6.18031 1.41851 6.707C1.29618 6.73416 1.17672 6.76271 1.06015 6.79244C0.749859 7.46728 0.502171 8.17691 0.324453 8.91382C0.514266 8.86311 0.710408 8.81491 0.912778 8.76992C3.78803 8.13098 7.85052 8.15872 12.7603 10.6136C17.1755 12.8212 20.6896 12.7934 23.0597 12.2667C23.1409 12.2487 23.2209 12.2301 23.2996 12.2108C23.3082 12.0271 23.3125 11.8422 23.3125 11.6562C23.3125 11.1885 23.285 10.7272 23.2314 10.2739ZM22.919 14.6707C20.0944 15.1645 16.2704 14.975 11.7178 12.6988C7.30262 10.4912 3.78853 10.519 1.41851 11.0457C0.892432 11.1625 0.419182 11.3049 0.00170764 11.4552C0.000569408 11.5221 0 11.5891 0 11.6562C0 18.0938 5.21868 23.3125 11.6562 23.3125C17.0514 23.3125 21.5905 19.6471 22.919 14.6707Z" fill="#EFD900"/>
</svg>
